<?xml version="1.0" encoding="utf-8"?>
<!-- Generator: Adobe Illustrator 23.0.3, SVG Export Plug-In . SVG Version: 6.00 Build 0)  -->
<svg version="1.1" id="Vrstva_1" xmlns="http://www.w3.org/2000/svg" xmlns:xlink="http://www.w3.org/1999/xlink" x="0px" y="0px"
	 viewBox="0 0 151.94 67.27" style="enable-background:new 0 0 151.94 67.27;" xml:space="preserve">
<style type="text/css">
	.st0{fill:#B01562;}
</style>
<path class="st0" d="M145.62,0H6.32C2.83,0,0,2.83,0,6.32v42.81c0,3.48,2.83,6.32,6.32,6.32h127.56c1.13,0,2.97,0.84,3.71,1.7
	l7.14,8.27c1.07,1.23,2.24,1.86,3.5,1.86c1.85,0,3.71-1.41,3.71-4.54V6.32C151.94,2.83,149.11,0,145.62,0z M149.14,62.72
	c0,1.14-0.36,1.75-0.92,1.75c-0.39,0-0.87-0.29-1.38-0.89l-7.14-8.27c-1.27-1.47-3.89-2.67-5.82-2.67L6.32,52.62
	c-1.94,0-3.52-1.58-3.52-3.52V6.34c0-1.94,1.58-3.52,3.52-3.52h139.3c1.94,0,3.52,1.58,3.52,3.52V62.72z M35.87,24.47
	c0-0.26-0.02-0.35-0.21-0.85l-2.79-7.68c-0.32-0.86-0.96-1.36-1.81-1.36c-0.85,0-1.49,0.5-1.81,1.36l-2.79,7.68
	c-0.19,0.5-0.21,0.58-0.21,0.85c0,0.64,0.58,1.18,1.25,1.18c0.64,0,0.99-0.37,1.25-1.3l0.26-0.93h4.1l0.26,0.93
	c0.27,0.94,0.61,1.3,1.25,1.3C35.31,25.65,35.87,25.11,35.87,24.47z M29.78,21.23l1.3-4.07l1.3,4.07H29.78z M42.65,38.61
	c-0.26-0.13-0.38-0.14-0.91-0.14h-3.73l4.66-6.29C42.86,31.9,43,31.52,43,31.23c0-0.26-0.06-0.5-0.21-0.7
	c-0.27-0.42-0.58-0.54-1.23-0.54H36.5c-0.54,0-0.66,0.02-0.91,0.14c-0.32,0.16-0.54,0.56-0.54,0.94c0,0.4,0.22,0.8,0.54,0.96
	c0.26,0.13,0.38,0.14,0.91,0.14h3.46l-4.56,6.05c-0.48,0.66-0.56,0.82-0.56,1.2c0,0.3,0.11,0.56,0.34,0.78
	c0.34,0.35,0.59,0.45,1.22,0.45h5.35c0.54,0,0.66-0.02,0.91-0.14c0.32-0.16,0.54-0.56,0.54-0.96C43.2,39.17,42.97,38.77,42.65,38.61
	z M46.44,29.82c-0.45,0-0.88,0.26-1.07,0.61c-0.13,0.29-0.16,0.43-0.16,1.02v7.73c0,0.59,0.02,0.74,0.16,1.02
	c0.19,0.35,0.62,0.61,1.07,0.61c0.43,0,0.86-0.26,1.06-0.61c0.14-0.29,0.16-0.43,0.16-1.02v-7.73c0-0.61-0.02-0.74-0.16-1.02
	C47.32,30.08,46.87,29.82,46.44,29.82z M31.67,32.18c0.54,0,0.66-0.02,0.91-0.14c0.32-0.16,0.54-0.56,0.54-0.96
	c0-0.38-0.22-0.78-0.54-0.94c-0.26-0.13-0.38-0.14-0.91-0.14h-3.27c-0.56,0-0.91,0.16-1.2,0.53c-0.22,0.29-0.27,0.5-0.27,1.25v7.12
	c0,0.83,0.06,1.06,0.38,1.38c0.34,0.34,0.56,0.4,1.39,0.4h2.96c0.54,0,0.66-0.02,0.91-0.14c0.32-0.16,0.54-0.56,0.54-0.96
	c0-0.38-0.22-0.78-0.54-0.94c-0.26-0.13-0.38-0.14-0.91-0.14h-2.29V36.4h2.05c0.53,0,0.66-0.02,0.91-0.14
	c0.32-0.16,0.54-0.56,0.54-0.96c0-0.38-0.22-0.78-0.54-0.94c-0.26-0.13-0.38-0.14-0.91-0.14h-2.05v-2.03H31.67z M72.6,25.46h2.96
	c0.54,0,0.66-0.02,0.91-0.14c0.32-0.16,0.55-0.56,0.55-0.96c0-0.38-0.22-0.78-0.55-0.94c-0.26-0.13-0.38-0.14-0.91-0.14h-2.29V21.2
	h2.05c0.53,0,0.66-0.02,0.91-0.14c0.32-0.16,0.54-0.56,0.54-0.96c0-0.38-0.22-0.78-0.54-0.94c-0.26-0.13-0.38-0.14-0.91-0.14h-2.05
	v-2.03h2.29c0.54,0,0.66-0.02,0.91-0.14c0.32-0.16,0.55-0.56,0.55-0.96c0-0.38-0.22-0.78-0.55-0.94c-0.26-0.13-0.38-0.14-0.91-0.14
	h-3.27c-0.56,0-0.91,0.16-1.2,0.53c-0.22,0.29-0.27,0.5-0.27,1.25v7.12c0,0.83,0.06,1.06,0.38,1.38
	C71.54,25.4,71.77,25.46,72.6,25.46z M39.88,25.43l2.39,0.03c2.99,0.05,5.03-2.08,5.03-5.28c0-1.89-0.72-3.52-1.97-4.43
	c-0.85-0.62-2.06-0.96-3.42-0.96h-2.31c-0.56,0-0.91,0.16-1.2,0.51c-0.22,0.3-0.27,0.5-0.27,1.26v7.09c0,0.83,0.06,1.06,0.38,1.38
	C38.82,25.35,39.05,25.41,39.88,25.43z M40.57,16.91h0.93c1.04,0,1.68,0.19,2.21,0.66c0.66,0.58,0.98,1.42,0.98,2.54
	c0,2.08-1.02,3.22-2.9,3.22h-1.22V16.91z M22.94,14.62c-0.45,0-0.88,0.26-1.07,0.61c-0.13,0.29-0.16,0.43-0.16,1.02v4.85l-4.72-5.94
	c-0.32-0.4-0.58-0.54-1.01-0.54c-0.74,0-1.22,0.5-1.22,1.25v8.12c0,0.59,0.02,0.74,0.16,1.02c0.19,0.35,0.63,0.61,1.07,0.61
	c0.43,0,0.87-0.26,1.06-0.61c0.14-0.29,0.16-0.43,0.16-1.02v-4.99l4.51,5.75c0.38,0.48,0.38,0.48,0.46,0.56
	c0.22,0.22,0.48,0.32,0.8,0.32c0.34,0,0.61-0.11,0.83-0.37c0.26-0.27,0.34-0.51,0.34-1.04v-7.96c0-0.61-0.02-0.74-0.16-1.02
	C23.82,14.88,23.37,14.62,22.94,14.62z M22.94,29.82c-0.45,0-0.88,0.26-1.07,0.61c-0.13,0.29-0.16,0.43-0.16,1.02v4.85l-4.72-5.94
	c-0.32-0.4-0.58-0.54-1.01-0.54c-0.74,0-1.22,0.5-1.22,1.25v8.12c0,0.59,0.02,0.74,0.16,1.02c0.19,0.35,0.63,0.61,1.07,0.61
	c0.43,0,0.87-0.26,1.06-0.61c0.14-0.29,0.16-0.43,0.16-1.02v-4.99l4.51,5.75c0.38,0.48,0.38,0.48,0.46,0.56
	c0.22,0.22,0.48,0.32,0.8,0.32c0.34,0,0.61-0.11,0.83-0.37c0.26-0.27,0.34-0.51,0.34-1.04v-7.96c0-0.61-0.02-0.74-0.16-1.02
	C23.82,30.08,23.37,29.82,22.94,29.82z M98.23,34.93l2.58-2.61c0.59-0.61,0.72-0.83,0.72-1.31c0-0.67-0.5-1.18-1.14-1.18
	c-0.45,0-0.75,0.19-1.33,0.83l-3.15,3.54v-2.74c0-0.61-0.02-0.74-0.16-1.02c-0.18-0.35-0.62-0.61-1.06-0.61
	c-0.45,0-0.88,0.26-1.07,0.61c-0.13,0.29-0.16,0.43-0.16,1.02v7.73c0,0.59,0.02,0.74,0.16,1.02c0.19,0.35,0.62,0.61,1.07,0.61
	c0.43,0,0.87-0.26,1.06-0.61c0.14-0.29,0.16-0.43,0.16-1.02v-3.31l3.78,4.15c0.63,0.67,0.83,0.8,1.36,0.8
	c0.67,0,1.14-0.46,1.14-1.15c0-0.46-0.11-0.67-0.7-1.3L98.23,34.93z M114.91,38.32c-0.74,0-1.33,0.58-1.33,1.3
	c0,0.72,0.58,1.31,1.31,1.31c0.71,0,1.3-0.59,1.3-1.31C116.19,38.91,115.61,38.32,114.91,38.32z M111.28,29.82
	c-0.48,0-0.75,0.18-1.23,0.85l-1.89,2.61l-1.82-2.59c-0.46-0.69-0.72-0.86-1.22-0.86c-0.67,0-1.23,0.54-1.23,1.2
	c0,0.32,0.11,0.59,0.46,1.07l2.58,3.52v3.57c0,0.59,0.02,0.74,0.16,1.02c0.19,0.35,0.62,0.61,1.07,0.61c0.43,0,0.86-0.26,1.06-0.61
	c0.14-0.29,0.16-0.43,0.16-1.02v-3.57l2.66-3.51c0.38-0.51,0.5-0.75,0.5-1.1C112.52,30.38,111.93,29.82,111.28,29.82z M126.14,38.02
	c-0.16,0-0.35,0.05-0.54,0.13c-1.09,0.5-1.09,0.5-1.7,0.5c-1.7,0-2.71-1.23-2.71-3.3c0-2.1,1.01-3.35,2.69-3.35
	c0.46,0,0.78,0.06,1.28,0.27c0.5,0.21,0.66,0.26,0.9,0.26c0.58,0,0.99-0.45,0.99-1.09c0-1.02-1.28-1.73-3.19-1.73
	c-3.12,0-5.3,2.29-5.3,5.57c0,3.41,2.11,5.65,5.33,5.65c1.87,0,3.23-0.75,3.23-1.79C127.13,38.53,126.68,38.02,126.14,38.02z
	 M54.46,33.97c-1.02-0.27-1.02-0.27-1.31-0.48c-0.21-0.13-0.34-0.37-0.34-0.61c0-0.51,0.51-0.88,1.23-0.88
	c0.34,0,0.74,0.08,1.09,0.21c0.61,0.22,0.61,0.22,0.85,0.22c0.61,0,1.09-0.5,1.09-1.14c0-0.93-1.22-1.58-2.93-1.58
	c-2.29,0-3.94,1.42-3.94,3.41c0,0.82,0.24,1.5,0.69,1.94c0.45,0.45,0.94,0.69,2.19,1.06c1.17,0.35,1.39,0.43,1.7,0.64
	c0.27,0.16,0.42,0.43,0.42,0.77c0,0.67-0.53,1.12-1.34,1.12c-0.37,0-0.83-0.1-1.2-0.24c-1.17-0.45-1.17-0.45-1.47-0.45
	c-0.58,0-1.06,0.53-1.06,1.17c0,1.06,1.5,1.81,3.63,1.81c1.36,0,2.48-0.4,3.15-1.14c0.58-0.62,0.91-1.52,0.91-2.45
	C57.82,35.62,56.81,34.61,54.46,33.97z M136.64,38.61c-0.26-0.13-0.38-0.14-0.91-0.14h-3.73l4.66-6.29
	c0.19-0.27,0.34-0.66,0.34-0.94c0-0.26-0.06-0.5-0.21-0.7c-0.27-0.42-0.58-0.54-1.23-0.54h-5.06c-0.54,0-0.66,0.02-0.91,0.14
	c-0.32,0.16-0.54,0.56-0.54,0.94c0,0.4,0.22,0.8,0.54,0.96c0.26,0.13,0.38,0.14,0.91,0.14h3.46l-4.56,6.05
	c-0.48,0.66-0.56,0.82-0.56,1.2c0,0.3,0.11,0.56,0.34,0.78c0.34,0.35,0.59,0.45,1.22,0.45h5.35c0.54,0,0.66-0.02,0.91-0.14
	c0.32-0.16,0.54-0.56,0.54-0.96C137.18,39.17,136.96,38.77,136.64,38.61z M90.03,29.81c-0.61,0-0.96,0.32-1.28,1.2l-2.08,5.55
	l-2.1-5.55c-0.32-0.88-0.66-1.2-1.26-1.2c-0.67,0-1.25,0.54-1.25,1.18c0,0.26,0.05,0.46,0.22,0.9l3.23,8.15
	c0.21,0.54,0.61,0.83,1.12,0.83c0.62,0,0.94-0.26,1.25-0.99l3.15-7.99c0.21-0.51,0.24-0.61,0.24-0.9
	C91.28,30.35,90.7,29.81,90.03,29.81z M75.48,29.71c-1.34,0-2.55,0.45-3.54,1.31c-1.12,0.98-1.74,2.46-1.74,4.19
	c0,3.46,2.1,5.71,5.31,5.71c3.11,0,5.23-2.29,5.23-5.62C80.75,31.98,78.6,29.71,75.48,29.71z M75.5,38.74
	c-1.63,0-2.69-1.38-2.69-3.52c0-1.97,1.1-3.31,2.69-3.31c1.6,0,2.64,1.34,2.64,3.41C78.14,37.38,77.1,38.74,75.5,38.74z
	 M65.08,25.73c1.87,0,3.23-0.75,3.23-1.79c0-0.61-0.45-1.12-0.99-1.12c-0.16,0-0.35,0.05-0.54,0.13c-1.09,0.5-1.09,0.5-1.7,0.5
	c-1.7,0-2.71-1.23-2.71-3.3c0-2.1,1.01-3.35,2.69-3.35c0.46,0,0.78,0.06,1.28,0.27c0.5,0.21,0.66,0.26,0.9,0.26
	c0.58,0,0.99-0.45,0.99-1.09c0-1.02-1.28-1.73-3.19-1.73c-3.12,0-5.3,2.29-5.3,5.57C59.75,23.49,61.86,25.73,65.08,25.73z
	 M55.34,15.94c-0.32-0.86-0.96-1.36-1.81-1.36c-0.85,0-1.49,0.5-1.81,1.36l-2.79,7.68c-0.19,0.5-0.21,0.58-0.21,0.85
	c0,0.64,0.58,1.18,1.25,1.18c0.64,0,0.99-0.37,1.25-1.3l0.26-0.93h4.1l0.26,0.93c0.27,0.94,0.61,1.3,1.25,1.3
	c0.69,0,1.25-0.54,1.25-1.18c0-0.26-0.02-0.35-0.21-0.85L55.34,15.94z M52.25,21.23l1.3-4.07l1.3,4.07H52.25z M65.03,34.93
	l2.58-2.61c0.59-0.61,0.72-0.83,0.72-1.31c0-0.67-0.5-1.18-1.14-1.18c-0.45,0-0.75,0.19-1.33,0.83l-3.15,3.54v-2.74
	c0-0.61-0.02-0.74-0.16-1.02c-0.18-0.35-0.62-0.61-1.06-0.61c-0.45,0-0.88,0.26-1.07,0.61c-0.13,0.29-0.16,0.43-0.16,1.02v7.73
	c0,0.59,0.02,0.74,0.16,1.02c0.19,0.35,0.63,0.61,1.07,0.61c0.43,0,0.87-0.26,1.06-0.61c0.14-0.29,0.16-0.43,0.16-1.02v-3.31
	l3.78,4.15c0.63,0.67,0.83,0.8,1.36,0.8c0.67,0,1.14-0.46,1.14-1.15c0-0.46-0.11-0.67-0.7-1.3L65.03,34.93z"/>
</svg>
